<?xml version="1.0" encoding="utf-8"?>
<!-- Generator: Adobe Illustrator 22.1.0, SVG Export Plug-In . SVG Version: 6.00 Build 0)  -->
<svg version="1.1" id="Layer_1" xmlns="http://www.w3.org/2000/svg" xmlns:xlink="http://www.w3.org/1999/xlink" x="0px" y="0px"
	 width="63.5px" height="53.2px" viewBox="0 0 63.5 53.2" style="enable-background:new 0 0 63.5 53.2;" xml:space="preserve">
<style type="text/css">
	.st0{fill:#FFFFFF;}
</style>
<g>
	<g id="Page-1">
		<g id="nbcuxlab">
			<path class="st0" d="M34.2,18L21.9,36.9c-1.4,0.3-3,0.4-4.7,0.4c-5,0-8.9-1.3-11.6-3.9s-4-6.3-4-11.1V0h10v21.6
				c0,2.6,0.5,4.5,1.5,5.7c1,1.2,2.4,1.8,4.3,1.8c2,0,3.5-0.6,4.4-1.8c0.9-1.2,1.4-3.1,1.4-5.7V1.2L34.2,18z M54.3,36.4
				c0.1,0,0.3-0.1,0.4-0.1c0.4-0.2,0.7-0.4,1.1-0.8c0.8-0.9,1-2.3,0.5-3.4c-0.5-1.2-1.8-2-3.2-1.9c0.9-0.8,1.3-1.8,1.1-2.9
				c-0.1-1.1-1-2.1-2-2.5c-1-0.4-2.3-0.1-3.1,0.6h0c0.4-0.9,0.2-2.1-0.4-2.9C48,21.5,47,21,45.9,21.2c-1.1,0.1-2.2,1-2.5,2
				c-0.1-0.2-0.2-0.5-0.3-0.7c-0.7-1.1-2-1.6-3.3-1.3c-1,0.2-1.9,1.1-2.2,2.1c-0.2,0.6-0.2,1.5,0,2.1c-0.9-0.8-2.2-1.1-3.3-0.6
				c-1,0.4-1.7,1.4-1.8,2.4c-0.1,1.2,0.3,2.3,1.3,3c-1-0.1-2,0.2-2.7,1c-0.8,0.8-1.1,2-0.7,3.2c0.3,0.9,1.1,1.8,2,2.1h-6.8l12-18.4
				L26.1,0.3h10.8l6.5,11.1l6.3-11.1h11.1L49.4,18.7l12.3,17.7H54.3z M45.5,34l2.2-5l1-2.3c0.4-0.8,1.2-1.2,2-1.2
				c0.8,0,1.5,0.4,1.9,1.1c0.4,0.7,0.5,1.8,0,2.5c-0.2,0.3-0.5,0.6-0.8,0.8L45.5,34z M44.8,23c0.6-0.3,1.4-0.4,2-0.1
				c0.8,0.4,1.3,1.2,1.3,2.1c0,0.3-0.1,0.7-0.2,0.9L44.7,33l-0.1-0.8l-0.7-5.9c0-0.4-0.1-1.3-0.1-1.3C43.7,24.2,44.1,23.5,44.8,23z
				 M41.2,22.5c0.7,0.2,1.4,0.8,1.6,1.6c0.1,0.3,0.1,0.6,0.1,0.9l-1.3,7.6l-3-7c-0.3-0.8-0.2-1.7,0.4-2.3
				C39.6,22.6,40.4,22.3,41.2,22.5z M33.8,27.7c0.1-0.8,0.7-1.6,1.5-1.9c0.8-0.2,1.7-0.1,2.2,0.5c0.2,0.2,0.4,0.5,0.5,0.8l2.9,7
				l-6.4-4.4C34,29.2,33.7,28.5,33.8,27.7z M31.8,34.3c-0.4-0.8-0.3-1.8,0.2-2.5c0.6-0.7,1.4-1,2.3-0.9c0.3,0.1,0.6,0.2,0.9,0.4
				l6.5,4.3l-8,0C32.8,35.5,32.2,35,31.8,34.3z M55,34.1c-0.4,0.7-1,1.1-1.8,1.2l-7.6,0l6.2-4.1c0.3-0.2,0.5-0.3,0.9-0.3
				c0.8-0.2,1.6,0.2,2.2,0.8C55.3,32.4,55.4,33.4,55,34.1z"/>
		</g>
	</g>
	<g>
		<path class="st0" d="M6.9,53H5.2l-3.4-5.6V53H0v-8.5h1.8l3.4,5.6v-5.6h1.8V53z"/>
		<path class="st0" d="M8.5,53v-8.5h3c1,0,1.8,0.2,2.4,0.6s0.8,1,0.8,1.7c0,0.4-0.1,0.8-0.3,1.1s-0.5,0.6-0.9,0.7
			c0.4,0.1,0.8,0.3,1,0.7s0.4,0.7,0.4,1.2c0,0.8-0.3,1.4-0.8,1.9S12.8,53,11.8,53H8.5z M10.2,48.1h1.3c0.9,0,1.3-0.4,1.3-1.1
			c0-0.4-0.1-0.7-0.3-0.8s-0.6-0.3-1.1-0.3h-1.2V48.1z M10.2,49.3v2.3h1.5c0.4,0,0.7-0.1,1-0.3s0.3-0.5,0.3-0.8
			c0-0.8-0.4-1.2-1.2-1.2H10.2z"/>
		<path class="st0" d="M22.8,50.2c-0.1,0.9-0.4,1.6-1,2.2s-1.4,0.8-2.4,0.8c-1.1,0-2-0.4-2.6-1.1s-0.9-1.7-0.9-3v-0.5
			c0-0.8,0.1-1.5,0.4-2.2s0.7-1.1,1.2-1.4s1.2-0.5,1.9-0.5c1,0,1.8,0.3,2.4,0.8s0.9,1.3,1,2.2h-1.8c0-0.6-0.2-1-0.5-1.2
			s-0.7-0.4-1.2-0.4c-0.6,0-1,0.2-1.3,0.6s-0.4,1.1-0.4,2v0.6c0,0.9,0.1,1.6,0.4,2s0.7,0.6,1.3,0.6c0.5,0,0.9-0.1,1.2-0.4
			s0.4-0.6,0.5-1.2H22.8z"/>
		<path class="st0" d="M30.4,44.5v5.6c0,0.9-0.3,1.7-0.9,2.2s-1.4,0.8-2.4,0.8c-1,0-1.8-0.3-2.4-0.8s-0.9-1.3-0.9-2.2v-5.7h1.8v5.6
			c0,0.6,0.1,1,0.4,1.2s0.6,0.4,1.1,0.4c1,0,1.5-0.5,1.5-1.6v-5.7H30.4z"/>
		<path class="st0" d="M34.9,47.4l1.6-2.9h2l-2.5,4.2l2.5,4.3h-2l-1.6-3l-1.6,3h-2l2.5-4.3l-2.5-4.2h2L34.9,47.4z"/>
		<path class="st0" d="M44.2,51.6H48V53h-5.5v-8.5h1.8V51.6z"/>
		<path class="st0" d="M53.9,51.3h-3.1L50.2,53h-1.9l3.2-8.5h1.6l3.2,8.5h-1.9L53.9,51.3z M51.3,49.9h2.1l-1.1-3.2L51.3,49.9z"/>
		<path class="st0" d="M57.2,53v-8.5h3c1,0,1.8,0.2,2.4,0.6s0.8,1,0.8,1.7c0,0.4-0.1,0.8-0.3,1.1s-0.5,0.6-0.9,0.7
			c0.4,0.1,0.8,0.3,1,0.7s0.4,0.7,0.4,1.2c0,0.8-0.3,1.4-0.8,1.9S61.5,53,60.5,53H57.2z M58.9,48.1h1.3c0.9,0,1.3-0.4,1.3-1.1
			c0-0.4-0.1-0.7-0.3-0.8s-0.6-0.3-1.1-0.3h-1.2V48.1z M58.9,49.3v2.3h1.5c0.4,0,0.7-0.1,1-0.3s0.3-0.5,0.3-0.8
			c0-0.8-0.4-1.2-1.2-1.2H58.9z"/>
	</g>
</g>
</svg>
