<?xml version="1.0" encoding="utf-8"?>
<!-- Generator: Adobe Illustrator 22.1.0, SVG Export Plug-In . SVG Version: 6.00 Build 0)  -->
<svg version="1.1" id="Layer_1" xmlns="http://www.w3.org/2000/svg" xmlns:xlink="http://www.w3.org/1999/xlink" x="0px" y="0px"
	 width="440px" height="50px" viewBox="0 0 440 50" style="enable-background:new 0 0 440 50;" xml:space="preserve">
<style type="text/css">
	.st0{fill:#FFFFFF;}
</style>
<g>
	<path class="st0" d="M87.8,35.2c-1.2,0-1.8-0.8-1.8-2.3s0.6-3.4,1.7-5.6c1.1-2.2,2.5-4.1,4-5.8c1.5-1.6,2.8-2.4,3.8-2.4
		c1,0,1.5,0.4,1.7,1.3c0,0.3,0.1,0.5,0.1,0.8c0.1-0.1,0.2-0.1,0.3-0.1c0.5,0,0.7,0.2,0.7,0.7v0.1c0,0-0.1,0.5-0.4,1.4
		c-0.3,0.9-0.6,2.4-0.9,4.5c-0.3,2.1-0.5,3.9-0.5,5.4c0.1,0.1,0.2,0.1,0.3,0.2s0.3,0.2,0.5,0.4c0.2,0.2,0.3,0.4,0.3,0.6
		s-0.1,0.4-0.2,0.6c-0.1,0.2-0.3,0.3-0.6,0.3c-0.5,0-1-0.3-1.4-0.8c-0.4-0.5-0.6-1.1-0.6-1.7c0-1.3,0.4-3.5,1.1-6.7
		c-0.9,1.9-2,3.6-3.4,5.4s-2.4,2.8-2.9,3.2C89,35,88.4,35.2,87.8,35.2z M87.6,33c0,0.4,0.2,0.6,0.5,0.6c0.2,0,0.4-0.1,0.6-0.2
		c2.2-1.9,4.1-4.4,5.8-7.7c1-1.9,1.5-3,1.5-3.2c0.1-0.3,0.1-0.5,0.1-0.7c0-0.2-0.1-0.4-0.2-0.6c-0.1-0.2-0.2-0.3-0.4-0.3
		s-0.5,0.1-0.8,0.3c-0.8,0.4-1.8,1.4-3,2.8c-1.2,1.4-2.1,3-2.9,4.7C88,30.3,87.6,31.7,87.6,33z"/>
	<path class="st0" d="M110.7,22.5c0-1-0.3-1.5-0.8-1.5c-0.8,0-2.2,2.2-4.3,6.5c-1,1.9-1.6,3.4-2,4.4c-0.4,1-0.7,1.7-0.9,2.1
		s-0.4,0.7-0.6,0.9c-0.2,0.2-0.4,0.3-0.6,0.3c-0.2,0-0.4-0.1-0.4-0.2c0-0.1-0.1-0.3-0.1-0.6c0-0.3,0.4-2.7,1.3-7.4
		c0.8-4.6,1.3-7.1,1.5-7.3c0.1-0.2,0.2-0.4,0.4-0.5c0.1-0.1,0.3-0.1,0.6-0.1c0.3,0,0.5,0.1,0.6,0.3c0.2,0.2,0.2,0.4,0.2,0.6
		c0,0.2,0,0.3-0.1,0.5c-0.1,0.3-0.2,0.6-0.3,1c-0.5,1.4-1,3.4-1.4,6.1l-0.3,1.9c0.2-0.5,0.5-1.1,0.8-1.8c0.3-0.7,0.8-1.7,1.3-3
		s1.3-2.5,2-3.5c0.9-1.4,1.8-2,2.6-2c1.4,0,2.1,1.2,2.1,3.5c0,0.9-0.1,1.9-0.4,3.2c-0.2,1.3-0.5,2.7-0.8,4.2s-0.5,2.8-0.5,3.8
		l-0.2,0.9c0,0.2,0,0.4-0.1,0.5c-0.1,0.1-0.3,0.1-0.6,0.1c-0.3,0-0.6-0.1-0.7-0.2c-0.2-0.1-0.2-0.3-0.1-0.7l1.6-9.3
		C110.6,24,110.7,23.2,110.7,22.5z"/>
	<path class="st0" d="M124.7,20.5l1.5-6.7c0.1-0.5,0.4-1.7,0.8-3.7c0.4-2,0.7-3.4,0.9-4.2l0.1-0.4c0-0.3,0.1-0.5,0.3-0.7
		c0.2-0.2,0.4-0.3,0.6-0.3c0.5,0,0.7,0.2,0.7,0.7v0.1c0,0.5-0.4,2.5-1.1,5.8s-1.2,5.8-1.4,7.1s-0.6,3.3-1.2,5.8s-1,4.1-1.1,5
		c-0.2,0.9-0.3,1.6-0.5,2.2c-0.1,0.6-0.2,1.2-0.2,1.8s0.1,1.2,0.3,1.8c0,0.2-0.1,0.5-0.3,0.6c-0.2,0.2-0.4,0.3-0.5,0.3
		c-0.3,0-0.5-0.3-0.7-1c-0.2-0.6-0.3-1.2-0.3-1.6c0-0.4,0.1-0.9,0.2-1.5c-0.4,1.3-1,2.2-1.7,2.9c-0.7,0.6-1.6,0.9-2.7,0.9
		c-1.1,0-1.9-0.5-2.3-1.4c-0.5-0.9-0.7-1.8-0.7-2.6c0-3.2,0.6-5.9,1.8-8.1c0.6-1,1.1-1.8,1.5-2.3c0.4-0.5,1-1,1.7-1.4
		c0.7-0.4,1.5-0.7,2.5-0.7C123.5,19,124.2,19.5,124.7,20.5z M123.5,25.5c0.2-0.8,0.3-1.4,0.3-1.6s0.1-0.6,0.1-1.2
		c0-0.5-0.2-1.1-0.5-1.6c-0.3-0.5-0.8-0.8-1.3-0.8c-1,0-2,0.6-2.8,1.9c-0.8,1.3-1.5,2.8-2,4.5c-0.5,1.7-0.8,3.2-0.8,4.3
		c0,1.2,0.3,2,1,2.5c0.2,0.2,0.5,0.2,0.9,0.2c0.7,0,1.5-0.6,2.4-1.9c0.8-1.3,1.5-2.5,1.9-3.6C123.1,27.3,123.3,26.4,123.5,25.5z"/>
	<path class="st0" d="M138.1,25.7l0.1,0.3c0,0.2-0.1,0.5-0.3,0.6c-0.2,0.2-0.4,0.3-0.6,0.3c-0.4,0-0.7-0.3-0.7-0.9
		c0-1.3,1.3-2.6,3.8-4.2c0.9-0.5,1.6-0.9,2.1-1.1c0.5-0.2,1.1-0.4,1.7-0.7c0.6-0.2,1.1-0.4,1.5-0.6c0.4-0.1,0.7-0.2,0.8-0.3
		c0.4-1.9,0.8-3.8,1-5.8c0.2-2,0.4-3.6,0.6-4.8c0.1-1.2,0.3-2.4,0.4-3.6c0.1-0.5,0.4-0.8,0.9-0.8c0.2,0,0.4,0,0.5,0.1
		c0.1,0.1,0.1,0.2,0.1,0.4c-0.2,3-0.9,7.7-1.9,14c3.2-0.8,7.3-1.3,12.2-1.6c0.7-5.3,1.1-8.2,1.3-8.8c0.5-1.9,0.7-3.1,0.8-3.8
		c0.1-0.2,0.2-0.4,0.4-0.5c0.2-0.2,0.4-0.2,0.6-0.2c0.3,0,0.4,0.2,0.5,0.5c0,0.6-0.1,1.2-0.3,1.9L163,8.1c-0.2,0.8-0.4,2.2-0.7,4.2
		c-0.3,2-0.5,3.6-0.7,5L169,17c0.4,0.1,0.5,0.3,0.5,0.5c0,0.2-0.1,0.4-0.2,0.6c-0.2,0.2-0.3,0.3-0.5,0.4c-1.2,0.1-2.4,0.1-3.6,0.1
		c-1.2,0-2.4,0-3.7,0.1c-0.2,1.5-0.5,3.2-0.8,5c-0.4,1.8-0.7,3.7-1,5.5c-0.3,1.8-0.5,3.6-0.6,5.5c0,0.3-0.1,0.5-0.3,0.6
		c-0.2,0.2-0.4,0.3-0.6,0.3c-0.3,0-0.5-0.2-0.5-0.7c0.1-1.9,0.3-3.8,0.6-5.6c0.3-1.8,0.6-3.3,0.8-4.4c0.2-1.1,0.4-2.2,0.6-3.3
		l0.5-2.8c-4.9,0.2-9.1,0.7-12.4,1.6c-0.6,2.6-1.3,5.2-2.1,7.8c-0.7,2.6-1.4,5.1-2,7.5c-0.2,0.4-0.5,0.6-0.9,0.6
		c-0.3,0-0.5-0.2-0.5-0.6c0.6-2.4,1.2-4.8,1.9-7.3c0.7-2.5,1.4-5,2-7.5c-2.7,0.9-4.9,2-6.5,3.3c-0.1,0.1-0.2,0.2-0.4,0.3
		C138.5,24.9,138.1,25.3,138.1,25.7C138.1,25.7,138.1,25.7,138.1,25.7z"/>
	<path class="st0" d="M166.6,35.2c-1.2,0-1.8-0.8-1.8-2.3s0.6-3.4,1.7-5.6c1.1-2.2,2.5-4.1,4-5.8c1.5-1.6,2.8-2.4,3.8-2.4
		c1,0,1.5,0.4,1.7,1.3c0,0.3,0.1,0.5,0.1,0.8c0.1-0.1,0.2-0.1,0.3-0.1c0.5,0,0.7,0.2,0.7,0.7v0.1c0,0-0.1,0.5-0.4,1.4
		c-0.3,0.9-0.6,2.4-0.9,4.5c-0.3,2.1-0.5,3.9-0.5,5.4c0.1,0.1,0.2,0.1,0.3,0.2s0.3,0.2,0.5,0.4c0.2,0.2,0.3,0.4,0.3,0.6
		s-0.1,0.4-0.2,0.6c-0.1,0.2-0.3,0.3-0.6,0.3c-0.5,0-1-0.3-1.4-0.8c-0.4-0.5-0.6-1.1-0.6-1.7c0-1.3,0.4-3.5,1.1-6.7
		c-0.9,1.9-2,3.6-3.4,5.4s-2.4,2.8-2.9,3.2C167.8,35,167.2,35.2,166.6,35.2z M166.3,33c0,0.4,0.2,0.6,0.5,0.6c0.2,0,0.4-0.1,0.6-0.2
		c2.2-1.9,4.1-4.4,5.8-7.7c1-1.9,1.5-3,1.5-3.2c0.1-0.3,0.1-0.5,0.1-0.7c0-0.2-0.1-0.4-0.2-0.6c-0.1-0.2-0.2-0.3-0.4-0.3
		s-0.5,0.1-0.8,0.3c-0.8,0.4-1.8,1.4-3,2.8c-1.2,1.4-2.1,3-2.9,4.7C166.7,30.3,166.3,31.7,166.3,33z"/>
	<path class="st0" d="M183.7,23.4c1.5-2.9,3.2-4.4,4.9-4.4c0.9,0,1.6,0.3,2,0.8s0.6,1.4,0.6,2.4c0,2-0.3,4-0.8,6s-1.4,3.8-2.5,5.2
		c-1.1,1.4-2.4,2.1-4,2.1c-0.6,0-1.1-0.1-1.4-0.4c-0.4-0.2-0.6-0.7-0.9-1.3c-0.5,2.4-1,4.8-1.5,7.2c-0.5,2.4-1,4.6-1.5,6.5
		c-0.2,0.4-0.5,0.6-0.9,0.6c-0.3,0-0.5-0.2-0.5-0.6c0.7-2.7,1.2-5.1,1.7-7.3c0.4-2.2,0.7-3.8,1-5c0.2-1.2,0.5-2.8,1-5
		c0.4-2.2,1.1-5.6,2-10.2v-0.7c0-0.2,0.1-0.4,0.3-0.6c0.2-0.2,0.4-0.3,0.7-0.3c0.3,0,0.4,0.1,0.6,0.3c0.1,0.2,0.2,0.4,0.2,0.6
		c0,0.2,0,0.3,0,0.5c0,0.1-0.1,0.3-0.1,0.4c0,0.1-0.1,0.3-0.1,0.4c0,0.1-0.1,0.3-0.1,0.4L183.7,23.4z M182.3,31.7
		c0,1.6,0.6,2.5,1.8,2.5c1.1,0,2.2-0.7,3.1-2.1c1.2-1.8,2-4.2,2.4-7.2c0.1-0.8,0.2-1.6,0.2-2.4c0-1.4-0.3-2.1-1-2.1
		c-0.7,0-1.5,0.5-2.4,1.5c-1.2,1.4-2.2,3-3,4.9C182.7,28.7,182.3,30.3,182.3,31.7z"/>
	<path class="st0" d="M197.1,23.4c1.5-2.9,3.2-4.4,4.9-4.4c0.9,0,1.6,0.3,2,0.8s0.6,1.4,0.6,2.4c0,2-0.3,4-0.8,6s-1.4,3.8-2.5,5.2
		c-1.1,1.4-2.4,2.1-4,2.1c-0.6,0-1.1-0.1-1.4-0.4c-0.4-0.2-0.6-0.7-0.9-1.3c-0.5,2.4-1,4.8-1.5,7.2c-0.5,2.4-1,4.6-1.5,6.5
		c-0.2,0.4-0.5,0.6-0.9,0.6c-0.3,0-0.5-0.2-0.5-0.6c0.7-2.7,1.2-5.1,1.7-7.3c0.4-2.2,0.7-3.8,1-5c0.2-1.2,0.5-2.8,1-5
		c0.4-2.2,1.1-5.6,2-10.2v-0.7c0-0.2,0.1-0.4,0.3-0.6c0.2-0.2,0.4-0.3,0.7-0.3c0.3,0,0.4,0.1,0.6,0.3c0.1,0.2,0.2,0.4,0.2,0.6
		c0,0.2,0,0.3,0,0.5c0,0.1-0.1,0.3-0.1,0.4c0,0.1-0.1,0.3-0.1,0.4c0,0.1-0.1,0.3-0.1,0.4L197.1,23.4z M195.7,31.7
		c0,1.6,0.6,2.5,1.8,2.5c1.1,0,2.2-0.7,3.1-2.1c1.2-1.8,2-4.2,2.4-7.2c0.1-0.8,0.2-1.6,0.2-2.4c0-1.4-0.3-2.1-1-2.1
		c-0.7,0-1.5,0.5-2.4,1.5c-1.2,1.4-2.2,3-3,4.9C196.1,28.7,195.7,30.3,195.7,31.7z"/>
	<path class="st0" d="M215.8,21.2c0.2-0.9,0.4-1.5,0.6-1.8c0.2-0.3,0.4-0.4,0.8-0.4s0.5,0.1,0.5,0.4s-0.5,2.4-1.4,6.5
		c-0.9,4.1-1.6,6.9-1.9,8.4c0.4-0.4,0.8-0.7,1.1-1c0.3-0.3,0.6-0.6,0.9-0.8s0.5-0.3,0.7-0.3c0.4,0,0.6,0.2,0.6,0.5
		c0,0.2-0.1,0.4-0.2,0.6c-1.2,1-2.3,2-3.3,2.8c-0.9,4.9-1.8,8.2-2.6,9.7c-0.2,0.4-0.5,0.8-0.9,1.2c-0.8,1-1.8,1.4-2.9,1.4
		c-1.1,0-1.9-0.4-2.5-1.2s-0.9-1.6-0.9-2.3c0-0.8,0.1-1.4,0.3-2c0.2-0.6,0.4-1.1,0.8-1.5c0.3-0.5,0.7-0.9,1.1-1.3s0.9-0.8,1.4-1.1
		c0.5-0.4,1-0.7,1.6-1.1c0.5-0.4,1.1-0.7,1.6-1.1l1.6-1.2c0.1-0.5,0.5-1.8,1.2-4c0.7-2.2,1.1-3.5,1.2-3.9c-0.9,2.6-2,4.7-3.3,6.1
		c-0.9,1-1.7,1.5-2.5,1.5c-0.8,0-1.4-0.3-2-1c-0.5-0.6-0.8-1.5-0.8-2.7c0-1.8,0.5-4.6,1.5-8.5c0.5-1.9,0.8-3,0.8-3.1
		c0-0.3,0-0.5,0.1-0.6c0.3-0.4,0.7-0.6,1.1-0.6s0.6,0.2,0.6,0.6c0,0.4-0.4,2.2-1.2,5.4c-0.8,3.2-1.2,5.4-1.2,6.4
		c0,1.1,0.1,1.8,0.4,2.1s0.6,0.4,1,0.4c0.8,0,1.7-0.7,2.6-2c0.9-1.4,1.7-3.2,2.3-5.6C215.2,23.8,215.6,22.2,215.8,21.2z M212.3,37.6
		c-0.9,0.7-1.7,1.2-2.4,1.8c-0.8,0.5-1.4,1-2,1.6c-1.2,1.1-1.9,2.4-1.9,3.8c0,0.9,0.3,1.6,0.9,2c0.2,0.2,0.6,0.3,1,0.3
		c0.4,0,0.8-0.1,1.1-0.4c0.3-0.3,0.6-0.6,0.9-1c0.3-0.4,0.5-0.9,0.7-1.5c0.2-0.5,0.4-1.1,0.6-1.6c0.2-0.5,0.3-1.1,0.4-1.6
		c0.1-0.5,0.2-0.9,0.3-1.2L212.3,37.6z"/>
	<path class="st0" d="M238.5,4.5c0.1-0.2,0.3-0.3,0.5-0.3c0.2,0,0.4,0.1,0.6,0.2c0.1,0.1,0.2,0.4,0.3,0.8c0.4,1.7,1.4,6,3.2,12.9
		c1.8,6.9,3.1,11.7,3.9,14.6c0.5-2.8,1.3-7.2,2.5-13.3c1.2-6.1,2.1-11,2.7-14.5c0.1-0.2,0.2-0.4,0.5-0.6c0.2-0.1,0.5-0.2,0.6-0.2
		c0.2,0,0.3,0.1,0.3,0.2c0,0.1,0,0.3,0,0.6c-1.3,6.4-2.5,12.5-3.5,18.3s-1.6,9.2-1.8,10.1s-0.3,1.5-0.3,1.6
		c-0.1,0.1-0.2,0.2-0.3,0.4c-0.2,0.2-0.4,0.2-0.6,0.2c-0.3,0-0.5-0.2-0.8-0.7c-0.3-0.5-0.6-1.5-1-3.1c-0.4-1.6-1.3-5-2.7-10.4
		c-1.4-5.4-2.5-9.8-3.4-13.2c-0.5,2.2-1.4,6.3-2.6,12.3s-2.3,10.8-3.2,14.4c-0.1,0.4-0.4,0.6-0.8,0.6s-0.7-0.2-0.7-0.6
		c0-0.1,0.4-1.7,1.1-4.7c0.7-3,1.8-8,3.2-15C237.6,8.3,238.4,4.7,238.5,4.5z"/>
	<path class="st0" d="M260.9,32.6c0.4,0,0.5,0.2,0.5,0.6c0,0.4-0.5,1-1.6,1.5s-2,0.8-2.7,0.8c-0.7,0-1.3-0.1-1.6-0.4
		c-0.4-0.2-0.7-0.6-0.9-1c-0.4-0.8-0.7-1.8-0.7-3c0-2.1,0.3-4,0.9-5.9s1.5-3.4,2.5-4.6c1-1.2,2.2-1.8,3.4-1.8c0.6,0,1.2,0.3,1.5,0.8
		c0.4,0.5,0.6,1.2,0.6,1.9c0,1.4-0.4,2.5-1.1,3.5c-0.7,0.9-1.6,1.7-2.6,2.3c-1,0.6-2.2,1.2-3.6,1.7l-0.1,2.3c0,1.8,0.5,2.7,1.6,2.7
		c0.6,0,1.2-0.2,1.8-0.5c0.6-0.3,1.1-0.6,1.4-0.7C260.6,32.7,260.8,32.6,260.9,32.6z M261.3,21.6c0-0.8-0.3-1.2-1-1.2
		c-0.6,0-1.4,0.6-2.2,1.7s-1.5,2.6-2.1,4.5c-0.1,0.4-0.2,0.8-0.2,1c0.4-0.2,0.8-0.4,1.3-0.7c0.4-0.2,0.9-0.4,1.3-0.7
		c1-0.5,1.7-1.2,2.2-1.9C261.1,23.6,261.3,22.7,261.3,21.6z"/>
	<path class="st0" d="M267.4,35.3c-0.4,0-0.7-0.4-0.7-1.3c-0.4-1.5-0.7-3.8-1.1-7c-0.4-3.2-0.7-5.1-0.8-5.8
		c-0.1-0.7-0.2-1.1-0.2-1.2c0-0.2,0.1-0.3,0.3-0.5c0.2-0.2,0.4-0.3,0.5-0.3s0.4,0.1,0.5,0.2c0.2,0.2,0.3,0.4,0.4,0.8
		c0.1,0.4,0.2,1.2,0.4,2.4c0.2,1.2,0.4,3.1,0.8,5.5c0.3,2.4,0.5,3.7,0.6,3.9c0.4-1,0.7-2,1.2-3.1c1.7-4.5,2.8-7.6,3.1-9.2
		c0.1-0.4,0.3-0.6,0.7-0.6c0.2,0,0.4,0.1,0.5,0.2c0.1,0.1,0.2,0.3,0.2,0.5c0.5,5,1.1,9.2,1.7,12.7c3.2-5.1,4.8-9.2,4.8-12.2
		c0-1.5-0.5-2.8-1.5-3.8c-0.1-0.2-0.3-0.3-0.6-0.4c-0.2-0.1-0.5-0.3-0.7-0.4c-0.6-0.3-0.9-0.7-0.9-0.9c0-0.2,0.1-0.4,0.3-0.6
		c0.2-0.2,0.4-0.3,0.6-0.3s0.8,0.2,1.5,0.7c0.8,0.5,1.4,1.2,1.9,2.1s0.8,2.1,0.8,3.3c0,2.2-0.4,4.3-1.3,6.5c-0.9,2.1-2,4.2-3.3,6.2
		c-0.2,0.2-0.3,0.5-0.5,0.9c-0.7,1.3-1.3,1.9-1.8,1.9c-0.5,0-0.7-0.4-0.7-1.3c0-0.2,0-0.3,0-0.5c0-0.2,0-0.4-0.1-0.9
		c-0.7-3.9-1.2-6.8-1.4-8.8c-0.3,0.7-0.9,2.4-1.9,4.9c-0.9,2.6-1.8,4.6-2.4,6C267.9,35.2,267.7,35.3,267.4,35.3z"/>
	<path class="st0" d="M297.6,36.2c-0.1,0.2-0.3,0.3-0.6,0.3c-0.4,0-0.6-0.2-0.6-0.6c0-0.5,0.4-0.9,1.1-1c0.4-0.1,0.8-0.2,1.2-0.3
		c0.4-0.1,0.8-0.2,1.2-0.3c0.5-1.4,0.8-2.7,1-3.9c0.2-1.2,0.3-2.2,0.5-3.1c0.1-0.8,0.2-1.7,0.4-2.7c-0.9-1.2-2.1-5.9-3.5-14.1
		c-0.4-2.1-0.6-3.9-0.8-5.4c0-0.3,0.1-0.5,0.2-0.7s0.4-0.3,0.6-0.3c0.2,0,0.5,0.1,0.7,0.3c0.1,0.1,0.1,0.3,0.1,0.4s-0.1,0.3-0.2,0.5
		c0.1,0.9,0.3,1.8,0.4,2.8c0.9,6.8,2,11.8,3.2,14.8c0.5-1.1,1.3-3,2.3-5.8C306,14.4,307,12,308,10c1-2,2.2-3.8,3.5-5.4
		c0.1-0.2,0.3-0.2,0.5-0.2c0.4,0,0.6,0.2,0.6,0.5c0,0.2-0.1,0.4-0.3,0.6c-1.7,1.9-3.5,5.1-5.3,9.7c-0.5,1.2-1.1,2.9-1.9,5
		c-0.8,2.1-1.4,3.5-1.7,4.2c-0.3,1.2-0.7,2.9-1,4.9c-0.4,2-0.7,3.6-1,4.8C302,34,302.5,34,303,34c2.1,0,3.1,0.3,3.1,0.9
		c0,0.2-0.1,0.4-0.3,0.6c-0.2,0.2-0.5,0.3-0.7,0.3c-0.7-0.2-1.5-0.3-2.5-0.3c-1,0-2.1,0.1-3.1,0.4C298.4,36.1,297.8,36.2,297.6,36.2
		L297.6,36.2L297.6,36.2z"/>
	<path class="st0" d="M316.8,32.6c0.4,0,0.5,0.2,0.5,0.6c0,0.4-0.5,1-1.6,1.5s-2,0.8-2.7,0.8c-0.7,0-1.3-0.1-1.6-0.4
		c-0.4-0.2-0.7-0.6-0.9-1c-0.4-0.8-0.7-1.8-0.7-3c0-2.1,0.3-4,0.9-5.9s1.5-3.4,2.5-4.6c1-1.2,2.2-1.8,3.4-1.8c0.6,0,1.2,0.3,1.5,0.8
		c0.4,0.5,0.6,1.2,0.6,1.9c0,1.4-0.4,2.5-1.1,3.5c-0.7,0.9-1.6,1.7-2.6,2.3c-1,0.6-2.2,1.2-3.6,1.7l-0.1,2.3c0,1.8,0.5,2.7,1.6,2.7
		c0.6,0,1.2-0.2,1.8-0.5c0.6-0.3,1.1-0.6,1.4-0.7C316.4,32.7,316.6,32.6,316.8,32.6z M317.2,21.6c0-0.8-0.3-1.2-1-1.2
		c-0.6,0-1.4,0.6-2.2,1.7s-1.5,2.6-2.1,4.5c-0.1,0.4-0.2,0.8-0.2,1c0.4-0.2,0.8-0.4,1.3-0.7c0.4-0.2,0.9-0.4,1.3-0.7
		c1-0.5,1.7-1.2,2.2-1.9C316.9,23.6,317.2,22.7,317.2,21.6z"/>
	<path class="st0" d="M321.4,35.2c-1.2,0-1.8-0.8-1.8-2.3s0.6-3.4,1.7-5.6c1.1-2.2,2.5-4.1,4-5.8c1.5-1.6,2.8-2.4,3.8-2.4
		c1,0,1.5,0.4,1.7,1.3c0,0.3,0.1,0.5,0.1,0.8c0.1-0.1,0.2-0.1,0.3-0.1c0.5,0,0.7,0.2,0.7,0.7v0.1c0,0-0.1,0.5-0.4,1.4
		c-0.3,0.9-0.6,2.4-0.9,4.5c-0.3,2.1-0.5,3.9-0.5,5.4c0.1,0.1,0.2,0.1,0.3,0.2s0.3,0.2,0.5,0.4c0.2,0.2,0.3,0.4,0.3,0.6
		s-0.1,0.4-0.2,0.6c-0.1,0.2-0.3,0.3-0.6,0.3c-0.5,0-1-0.3-1.4-0.8c-0.4-0.5-0.6-1.1-0.6-1.7c0-1.3,0.4-3.5,1.1-6.7
		c-0.9,1.9-2,3.6-3.4,5.4s-2.4,2.8-2.9,3.2C322.6,35,322,35.2,321.4,35.2z M321.2,33c0,0.4,0.2,0.6,0.5,0.6c0.2,0,0.4-0.1,0.6-0.2
		c2.2-1.9,4.1-4.4,5.8-7.7c1-1.9,1.5-3,1.5-3.2c0.1-0.3,0.1-0.5,0.1-0.7c0-0.2-0.1-0.4-0.2-0.6c-0.1-0.2-0.2-0.3-0.4-0.3
		s-0.5,0.1-0.8,0.3c-0.8,0.4-1.8,1.4-3,2.8c-1.2,1.4-2.1,3-2.9,4.7C321.5,30.3,321.2,31.7,321.2,33z"/>
	<path class="st0" d="M334.7,35.1l0.7-3.8c0.4-1.9,0.6-3.3,0.8-4.1c0.1-0.8,0.3-1.7,0.5-2.7s0.5-2.4,1.1-4.2c0-0.1,0-0.1,0-0.1v-0.2
		c0-0.5,0.2-0.9,0.6-1.1c0.1-0.1,0.2-0.1,0.4-0.1c0.4,0,0.7,0.3,0.7,1c0,0.4-0.2,1-0.5,2c-0.3,1-0.5,1.9-0.7,2.7
		c0.1-0.2,0.3-0.5,0.5-0.9c0.2-0.4,0.6-0.9,1-1.6c0.5-0.7,1-1.4,1.8-2c0.7-0.6,1.4-0.9,2.2-0.9s1.3,0.2,1.7,0.6
		c0.1,0.1,0.2,0.3,0.2,0.5c0,0.2-0.1,0.4-0.3,0.6c-0.2,0.2-0.4,0.2-0.6,0.2c-0.2,0-0.4-0.1-0.6-0.2s-0.4-0.2-0.6-0.2
		c-0.2,0-0.6,0.2-1.1,0.6c-2,1.4-3.6,4.3-4.9,8.6c-0.3,1.1-0.6,1.9-0.6,2.4c-0.1,0.4-0.1,0.8-0.2,1.1c-0.3,1.7-0.8,2.5-1.4,2.5
		C334.9,35.7,334.7,35.5,334.7,35.1z"/>
	<path class="st0" d="M347.1,35.9c-0.4-0.2-0.6-0.5-0.6-0.9s0.2-0.9,0.6-1.2c0.4-0.3,0.8-0.5,1.1-0.5s0.6,0.1,0.8,0.4
		c0.2,0.2,0.3,0.5,0.3,0.9c0,0.4-0.1,0.8-0.4,1.3c-0.3,0.5-0.7,0.8-1.2,0.8c-0.2,0-0.3-0.1-0.4-0.2c-0.1-0.1-0.2-0.2-0.2-0.4
		C347.1,36.1,347.1,36,347.1,35.9z M353.5,0c0.3,0,0.5,0.2,0.5,0.5c0,0.9-0.2,2-0.4,3.4c-0.2,1.4-0.5,3.2-0.7,5.4s-0.7,5.1-1.4,8.9
		c-0.7,3.8-1.5,7.5-2.4,11.2c-0.2,0.4-0.5,0.6-0.9,0.6c-0.3,0-0.5-0.2-0.5-0.6c1.9-8.2,3.3-15.7,4.1-22.3c0.1-1.1,0.3-2.1,0.5-3.2
		c0.2-1,0.3-2.1,0.4-3.2c0.1-0.2,0.2-0.4,0.4-0.5C353.1,0.1,353.3,0,353.5,0z"/>
</g>
</svg>
