<?xml version="1.0" encoding="utf-8"?>
<!-- Generator: Adobe Illustrator 22.1.0, SVG Export Plug-In . SVG Version: 6.00 Build 0)  -->
<svg version="1.1" id="Layer_1" xmlns="http://www.w3.org/2000/svg" xmlns:xlink="http://www.w3.org/1999/xlink" x="0px" y="0px"
	 width="117.8px" height="44px" viewBox="0 0 117.8 44" style="enable-background:new 0 0 117.8 44;" xml:space="preserve">
<style type="text/css">
	.st0{fill:#FFFFFF;}
</style>
<g>
	<path class="st0" d="M16.2,16.2l-2.1,0.1c-0.4,0-0.6-0.2-0.6-0.6c0-0.6,0.6-0.8,1.8-0.9c0.4,0,0.8,0,1.3,0h0.8
		c0.6-2.4,1.1-4.1,1.4-5.1c0.7-2,1.6-3.6,2.6-4.6c1-1.1,2.4-1.6,4.2-1.6c1.8,0,2.7,0.3,2.7,1c0,0.3-0.2,0.7-0.6,0.9
		c-1.5-0.1-2.3-0.2-2.6-0.2c-1.6,0-2.9,0.9-3.9,2.8c-1.1,1.8-1.8,4.1-2.2,6.8c0.7,0,1.1,0,1.4,0l0.7,0l1.3,0h0.3c0.1,0,0.2,0,0.4,0
		c0.6,0,0.9,0.2,0.9,0.6c0,0.5-0.5,0.8-1.5,0.8c-0.3,0-0.6,0-0.9,0h-1.2c-0.4,0-1,0-1.7,0c-0.4,2.2-0.7,4.2-1,5.9
		c-0.3,1.7-0.4,2.9-0.6,3.7c-0.1,0.7-0.2,1.6-0.4,2.6c-0.1,1-0.3,2.4-0.6,4.2c-0.7,4.6-2.2,7.8-4.5,9.6C10.2,43.5,8.4,44,6.1,44
		c-1.6,0-3.1-0.4-4.4-1.2c-0.5-0.3-0.9-0.6-1.2-0.9C0.1,41.7,0,41.4,0,41.2c0-0.2,0.1-0.3,0.3-0.5c0.2-0.1,0.4-0.2,0.6-0.2l0.2,0
		c1.2,0.9,2.1,1.4,2.7,1.6c0.6,0.2,1.4,0.3,2.4,0.3s1.9-0.2,2.7-0.5c0.8-0.3,1.5-0.8,2.1-1.4c0.6-0.6,1.1-1.2,1.5-2
		c0.4-0.8,0.8-1.6,1.1-2.5c0.3-0.9,0.5-1.8,0.8-2.7c0.2-0.9,0.4-1.9,0.5-2.8c0.2-0.9,0.3-1.8,0.4-2.6c0.1-0.8,0.3-1.6,0.4-2.3
		c0.2-1.6,0.4-3.1,0.7-4.7c0.2-1.6,0.4-3.1,0.7-4.7C16.7,16.3,16.4,16.2,16.2,16.2z"/>
	<path class="st0" d="M25.2,30.8l0.7-3.8c0.4-1.9,0.6-3.3,0.8-4.1c0.1-0.8,0.3-1.7,0.5-2.7s0.5-2.4,1.1-4.2c0-0.1,0-0.1,0-0.1v-0.2
		c0-0.5,0.2-0.9,0.6-1.1c0.1-0.1,0.2-0.1,0.4-0.1c0.4,0,0.7,0.3,0.7,1c0,0.4-0.2,1-0.5,2c-0.3,1-0.5,1.9-0.7,2.7
		c0.1-0.2,0.3-0.5,0.5-0.9c0.2-0.4,0.6-0.9,1-1.6c0.5-0.7,1-1.4,1.8-2c0.7-0.6,1.4-0.9,2.2-0.9s1.3,0.2,1.7,0.6
		c0.1,0.1,0.2,0.3,0.2,0.5c0,0.2-0.1,0.4-0.3,0.6c-0.2,0.2-0.4,0.2-0.6,0.2c-0.2,0-0.4-0.1-0.6-0.2s-0.4-0.2-0.6-0.2
		c-0.2,0-0.6,0.2-1.1,0.6c-2,1.4-3.6,4.3-4.9,8.6c-0.3,1.1-0.6,1.9-0.6,2.4c-0.1,0.4-0.1,0.8-0.2,1.1c-0.3,1.7-0.8,2.5-1.4,2.5
		C25.4,31.4,25.2,31.2,25.2,30.8z"/>
	<path class="st0" d="M43.6,14.7c2,0,3,1.5,3,4.5c0,2.3-0.6,4.8-1.9,7.5c-0.9,1.8-1.9,3.1-3.1,3.9c-0.6,0.4-1.3,0.6-1.9,0.6
		c-1.2,0-2-0.5-2.5-1.4c-0.5-0.9-0.8-1.9-0.8-3c0-1.9,0.3-3.8,1-5.6c0.7-1.8,1.5-3.3,2.7-4.5C41,15.3,42.2,14.7,43.6,14.7z
		 M39.4,19.9c-1.1,2.2-1.7,4.4-1.7,6.6c0,1.5,0.4,2.5,1.2,3c0.2,0.2,0.5,0.2,0.9,0.2c0.7,0,1.4-0.6,2.2-1.7c0.8-1.2,1.5-2.6,2.1-4.3
		c0.6-1.7,0.8-3.1,0.8-4.4c0-1.2-0.1-2-0.2-2.3c-0.1-0.3-0.3-0.5-0.5-0.7c-0.2-0.1-0.5-0.2-0.9-0.2s-0.9,0.2-1.4,0.5
		C41,17.3,40.1,18.4,39.4,19.9z"/>
	<path class="st0" d="M48.8,30.9c0.2-0.5,0.3-1.1,0.4-1.8c0.1-0.7,0.3-1.4,0.5-2c0.9-3.5,1.6-7.3,2.2-11.2c0-0.2,0.1-0.4,0.1-0.5
		c0-0.2,0.2-0.4,0.5-0.8c0.2-0.1,0.4-0.1,0.5-0.1c0.3,0,0.5,0.2,0.6,0.5v0.2c0,1.5-0.3,3.2-0.7,5L52,23.5c0.2-0.5,0.5-1,0.8-1.7
		c1.1-2.6,2.2-4.5,3.2-5.6c1-1.1,2.1-1.6,3.2-1.6c0.6,0,1.2,0.3,1.6,0.8s0.6,1.1,0.6,1.8c0,0.1,0,0.2,0,0.3c0,0.1,0,0.2,0,0.2
		c1.2-1.4,2.4-2.4,3.6-2.9c0.4-0.2,0.8-0.2,1.2-0.2c0.4,0,0.8,0.2,1.1,0.6c0.4,0.4,0.5,0.9,0.5,1.5s-0.1,1.3-0.2,2
		c-0.1,0.7-0.3,1.4-0.5,2.2c-0.2,0.7-0.4,1.5-0.7,2.2c-0.3,0.7-0.6,1.8-1,3.1c-0.4,1.3-0.6,2.3-0.7,3c-0.1,0.7-0.1,1.1-0.2,1.3
		c0,0.1-0.1,0.3-0.3,0.5s-0.3,0.3-0.6,0.3c-0.5,0-0.7-0.5-0.7-1.6c0-0.7,0.1-1.4,0.4-2.1c0.2-0.8,0.4-1.4,0.6-1.9
		c0.2-0.5,0.4-1.1,0.6-1.9c0.3-0.7,0.6-1.7,1-2.9c0.4-1.2,0.6-2.5,0.8-3.8c0-0.4-0.1-0.7-0.2-0.8s-0.3-0.1-0.6-0.1s-0.7,0.2-1.3,0.5
		c-0.6,0.4-1.1,0.9-1.7,1.5c-1.3,1.5-2.3,3.4-2.9,5.6c-0.2,0.7-0.4,1.2-0.5,1.7c-0.2,0.5-0.4,1.1-0.7,2c-0.3,0.8-0.5,1.6-0.7,2.2
		c-0.2,0.6-0.3,1-0.4,1.2c-0.1,0.2-0.3,0.2-0.6,0.2c-0.5,0-0.8-0.3-0.8-0.8c0.2-1.8,0.6-3.3,1.1-4.6s0.9-2.4,1.2-3.2
		c0.3-0.8,0.6-1.7,0.9-2.7c0.3-1,0.4-1.9,0.4-2.6s-0.2-1.1-0.7-1.1c-1.2,0-2.8,2-4.8,6.1c-1.1,2.2-1.7,3.6-2,4.3
		c-0.2,0.7-0.4,1.2-0.5,1.6c-0.7,2.2-1.3,3.2-2,3.2c-0.2,0-0.4,0-0.5-0.1C48.8,31.1,48.8,31,48.8,30.9z"/>
	<path class="st0" d="M87,16.2c-0.9,0-1.7,0.1-2.3,0.2c-0.4,0-0.6-0.2-0.6-0.5c0-0.2,0.1-0.4,0.2-0.6c0.2-0.2,0.4-0.3,0.6-0.3
		l2.3,0.1c0-0.2,0.1-0.5,0.1-0.8c0-0.3,0.1-0.8,0.2-1.3c0.1-0.6,0.3-1.1,0.5-1.6c0.2-0.5,0.5-0.7,0.8-0.7s0.5,0.2,0.5,0.6v0.2
		c-0.3,1.3-0.6,2.5-0.8,3.6H91c0.8,0,1.3,0.1,1.5,0.2c0.2,0.1,0.3,0.3,0.3,0.5c0,0.4-0.2,0.6-0.7,0.7c-0.2,0.1-0.7,0.1-1.4,0.1
		c-0.7,0-1.4,0-2.3-0.1c-0.2,1-0.6,3-1.3,5.8c-0.7,2.9-1,4.7-1,5.5s0.1,1.4,0.3,1.6c0.1,0.2,0.4,0.2,0.7,0.2c0.3,0,0.6-0.1,0.8-0.3
		c0.2-0.2,0.4-0.4,0.6-0.6c0.2-0.2,0.4-0.4,0.6-0.6c0.2-0.2,0.4-0.3,0.6-0.3c0.4,0,0.6,0.2,0.6,0.6c0,0.2-0.2,0.6-0.6,1.1
		c-0.4,0.5-0.8,0.9-1.2,1.2c-0.4,0.3-0.9,0.4-1.6,0.4c-0.7,0-1.2-0.1-1.4-0.4c-0.5-0.5-0.8-1.2-0.8-2.3c0-0.5,0.1-1.2,0.2-1.9
		l0.3-1.8c0.2-0.9,0.4-1.7,0.5-2.4s0.3-1.3,0.4-1.8c0.1-0.5,0.3-1.2,0.5-2C86.7,17.7,86.9,16.9,87,16.2z"/>
	<path class="st0" d="M95.9,30.4c0,0.5-0.4,0.7-1.2,0.7c-0.4,0-0.5-0.2-0.5-0.5s1-5.3,3.1-14.9c1.6-7.3,2.5-12.3,3-14.8l0.1-0.4
		c0.1-0.3,0.3-0.5,0.6-0.5c0.5,0,0.9,0.3,1,0.8c-0.1,0.4-0.2,0.9-0.3,1.7c-0.1,0.7-0.3,1.5-0.5,2.4s-0.4,1.9-0.6,2.9
		c-0.2,1.1-0.4,2.1-0.7,3.2c-0.2,1.1-0.6,2.7-1,5c-0.5,2.2-0.9,4.1-1.2,5.6c2.2-4.5,4.2-6.7,6.2-6.7c0.8,0,1.4,0.3,1.8,0.9
		c0.4,0.6,0.6,1.3,0.6,2.1s-0.1,1.8-0.4,3.1l-0.5,2.7c-0.6,2.9-0.9,4.7-0.9,5.3l0,1.2c0,0.3-0.1,0.5-0.3,0.7
		c-0.2,0.2-0.4,0.2-0.7,0.2c-0.3,0-0.5-0.1-0.7-0.3s-0.2-0.4-0.2-0.6c0-0.2,0-0.4,0-0.5l1.9-10.4c0.1-0.3,0.1-0.7,0.1-1.2
		c0-1.1-0.3-1.6-0.9-1.6c-1.1,0-2.7,1.7-4.6,5c-1.1,1.9-1.8,3.2-2,4s-0.5,1.6-0.7,2.5c-0.2,1-0.4,1.6-0.4,1.8L95.9,30.4z"/>
	<path class="st0" d="M115.9,28.2c0.4,0,0.5,0.2,0.5,0.6c0,0.4-0.5,1-1.6,1.5s-2,0.8-2.7,0.8c-0.7,0-1.3-0.1-1.6-0.4
		c-0.4-0.2-0.7-0.6-0.9-1c-0.4-0.8-0.7-1.8-0.7-3c0-2.1,0.3-4,0.9-5.9s1.5-3.4,2.5-4.6c1-1.2,2.2-1.8,3.4-1.8c0.6,0,1.2,0.3,1.5,0.8
		c0.4,0.5,0.6,1.2,0.6,1.9c0,1.4-0.4,2.5-1.1,3.5c-0.7,0.9-1.6,1.7-2.6,2.3c-1,0.6-2.2,1.2-3.6,1.7l-0.1,2.3c0,1.8,0.5,2.7,1.6,2.7
		c0.6,0,1.2-0.2,1.8-0.5c0.6-0.3,1.1-0.6,1.4-0.7C115.6,28.3,115.8,28.2,115.9,28.2z M116.3,17.3c0-0.8-0.3-1.2-1-1.2
		c-0.6,0-1.4,0.6-2.2,1.7s-1.5,2.6-2.1,4.5c-0.1,0.4-0.2,0.8-0.2,1c0.4-0.2,0.8-0.4,1.3-0.7c0.4-0.2,0.9-0.4,1.3-0.7
		c1-0.5,1.7-1.2,2.2-1.9C116.1,19.3,116.3,18.4,116.3,17.3z"/>
</g>
</svg>
