<?xml version="1.0" encoding="utf-8"?>
<!-- Generator: Adobe Illustrator 22.1.0, SVG Export Plug-In . SVG Version: 6.00 Build 0)  -->
<svg version="1.1" id="Layer_1" xmlns="http://www.w3.org/2000/svg" xmlns:xlink="http://www.w3.org/1999/xlink" x="0px" y="0px"
	 width="440px" height="22px" viewBox="0 0 440 22" style="enable-background:new 0 0 440 22;" xml:space="preserve">
<style type="text/css">
	.st0{fill:#FFFFFF;}
</style>
<g>
	<path class="st0" d="M136.4,0.7v19.6h-3L122.6,7.1v13.3H119V0.7h3L132.8,14V0.7H136.4z"/>
	<path class="st0" d="M162.3,11.9c0.6,0.8,1,1.9,1,3.1c0,1.7-0.7,3-2,3.9s-3.2,1.4-5.7,1.4h-9.7V0.7h9.2c2.3,0,4.1,0.5,5.3,1.4
		c1.2,0.9,1.9,2.2,1.9,3.7c0,1-0.2,1.8-0.7,2.6c-0.4,0.7-1.1,1.3-1.8,1.7C160.8,10.5,161.7,11.1,162.3,11.9z M149.5,3.6V9h5.2
		c1.3,0,2.2-0.2,2.9-0.7c0.7-0.5,1-1.1,1-2c0-0.9-0.3-1.6-1-2c-0.7-0.5-1.7-0.7-2.9-0.7H149.5z M159.6,14.6c0-1.9-1.4-2.8-4.2-2.8
		h-5.9v5.7h5.9C158.2,17.5,159.6,16.5,159.6,14.6z"/>
	<path class="st0" d="M175.1,19.3c-1.6-0.9-2.8-2.1-3.8-3.6c-0.9-1.5-1.4-3.3-1.4-5.2s0.5-3.6,1.4-5.2c0.9-1.5,2.2-2.7,3.8-3.6
		s3.4-1.3,5.4-1.3c1.6,0,3.1,0.3,4.4,0.8s2.4,1.4,3.4,2.4l-2.4,2.2c-1.4-1.5-3.2-2.3-5.2-2.3c-1.3,0-2.5,0.3-3.6,0.9
		c-1.1,0.6-1.9,1.4-2.5,2.4c-0.6,1-0.9,2.2-0.9,3.6s0.3,2.5,0.9,3.6c0.6,1,1.4,1.9,2.5,2.5c1.1,0.6,2.3,0.9,3.6,0.9
		c2.1,0,3.8-0.8,5.2-2.3l2.4,2.2c-0.9,1.1-2,1.9-3.4,2.4c-1.3,0.6-2.8,0.8-4.4,0.8C178.5,20.6,176.7,20.2,175.1,19.3z"/>
	<path class="st0" d="M197.9,18.3c-1.5-1.5-2.3-3.7-2.3-6.5V0.7h3.6v10.9c0,3.8,1.7,5.8,5,5.8c3.3,0,5-1.9,5-5.8V0.7h3.6v11.1
		c0,2.8-0.8,5-2.3,6.5c-1.5,1.5-3.6,2.3-6.3,2.3C201.5,20.6,199.4,19.9,197.9,18.3z"/>
	<path class="st0" d="M234.1,20.3l-5.3-7.4l-5.3,7.4h-4.1l7.3-10l-6.9-9.6h4.1l5,7l5-7h3.9l-6.9,9.5l7.4,10.1H234.1z"/>
	<path class="st0" d="M257.3,0.7h3.6v16.5h10.2v3.1h-13.9V0.7z"/>
	<path class="st0" d="M291.1,15.8h-9.8l-1.9,4.5h-3.8l8.8-19.6h3.6l8.8,19.6h-3.8L291.1,15.8z M289.9,12.9l-3.7-8.6l-3.7,8.6H289.9z
		"/>
	<path class="st0" d="M320.1,11.9c0.6,0.8,1,1.9,1,3.1c0,1.7-0.7,3-2,3.9s-3.2,1.4-5.7,1.4h-9.7V0.7h9.2c2.3,0,4.1,0.5,5.3,1.4
		c1.2,0.9,1.9,2.2,1.9,3.7c0,1-0.2,1.8-0.7,2.6c-0.4,0.7-1.1,1.3-1.8,1.7C318.6,10.5,319.4,11.1,320.1,11.9z M307.2,3.6V9h5.2
		c1.3,0,2.2-0.2,2.9-0.7c0.7-0.5,1-1.1,1-2c0-0.9-0.3-1.6-1-2c-0.7-0.5-1.7-0.7-2.9-0.7H307.2z M317.4,14.6c0-1.9-1.4-2.8-4.2-2.8
		h-5.9v5.7h5.9C315.9,17.5,317.4,16.5,317.4,14.6z"/>
</g>
</svg>
